<svg xmlns="http://www.w3.org/2000/svg" width="2048" height="400" viewBox="0 0 2048 400" role="img" aria-labelledby="title desc">
  <title id="title">Training Loss Curve by Learning Rate</title>
  <desc id="desc">Five training loss curves comparing learning rates 10, 0.1, 0.01, 0.001, and 0.0016.</desc>
  <rect width="2048" height="400" fill="#ffffff"/>
  <text x="1024" y="24" text-anchor="middle" font-family="Arial, sans-serif" font-size="20" fill="#111111">Training Loss Curve by Learning Rate</text>
  <g font-family="Arial, sans-serif" font-size="13" fill="#111111" stroke-linecap="round" stroke-linejoin="round">
    <g transform="translate(0 0)">
      <text x="232" y="70" text-anchor="middle" font-size="15">lr = 10</text>
      <line x1="56" y1="276" x2="408" y2="276" stroke="#111111"/>
      <line x1="56" y1="78" x2="56" y2="276" stroke="#111111"/>
      <g stroke="#e5e7eb">
        <line x1="56" y1="226.5" x2="408" y2="226.5"/>
        <line x1="56" y1="177" x2="408" y2="177"/>
        <line x1="56" y1="127.5" x2="408" y2="127.5"/>
      </g>
      <text x="232" y="314" text-anchor="middle">Epoch</text>
      <text x="16" y="180" text-anchor="middle" transform="rotate(-90 16 180)">Loss</text>
      <polyline fill="none" stroke="#d83b2d" stroke-width="2" points="56.0,141.6 74.5,209.0 93.1,247.9 111.6,218.3 130.1,208.5 148.6,223.7 167.2,253.7 185.7,107.9 204.2,224.0 222.7,197.9 241.3,248.6 259.8,242.3 278.3,202.4 296.8,234.4 315.4,184.7 333.9,256.2 352.4,216.6 370.9,240.8 389.5,214.4 408.0,196.0"/>
      <text x="72" y="336">Final loss: 2.8731</text>
      <text x="72" y="354">Test accuracy: 9.80%</text>
    </g>
    <g>
      <text x="636" y="70" text-anchor="middle" font-size="15">lr = 0.1</text>
      <line x1="460" y1="276" x2="812" y2="276" stroke="#111111"/>
      <line x1="460" y1="78" x2="460" y2="276" stroke="#111111"/>
      <g stroke="#e5e7eb">
        <line x1="460" y1="237.9" x2="812" y2="237.9"/>
        <line x1="460" y1="199.8" x2="812" y2="199.8"/>
        <line x1="460" y1="161.8" x2="812" y2="161.8"/>
        <line x1="460" y1="123.7" x2="812" y2="123.7"/>
        <line x1="460" y1="85.6" x2="812" y2="85.6"/>
      </g>
      <text x="636" y="314" text-anchor="middle">Epoch</text>
      <polyline fill="none" stroke="#ff7f0e" stroke-width="2" points="460.0,96.9 478.5,145.3 497.1,156.6 515.6,169.9 534.1,174.0 552.6,177.4 571.2,183.5 589.7,185.8 608.2,189.2 626.7,193.4 645.3,193.9 663.8,194.4 682.3,196.8 700.8,198.2 719.4,198.4 737.9,201.2 756.4,201.8 774.9,204.9 793.5,204.5 812.0,203.7"/>
      <text x="476" y="336">Final loss: 0.1900</text>
      <text x="476" y="354">Test accuracy: 97.69%</text>
    </g>
    <g>
      <text x="1040" y="70" text-anchor="middle" font-size="15">lr = 0.01</text>
      <line x1="864" y1="276" x2="1216" y2="276" stroke="#111111"/>
      <line x1="864" y1="78" x2="864" y2="276" stroke="#111111"/>
      <g stroke="#e5e7eb">
        <line x1="864" y1="237.9" x2="1216" y2="237.9"/>
        <line x1="864" y1="199.8" x2="1216" y2="199.8"/>
        <line x1="864" y1="161.8" x2="1216" y2="161.8"/>
        <line x1="864" y1="123.7" x2="1216" y2="123.7"/>
        <line x1="864" y1="85.6" x2="1216" y2="85.6"/>
      </g>
      <text x="1040" y="314" text-anchor="middle">Epoch</text>
      <polyline fill="none" stroke="#1b9e77" stroke-width="2" points="864.0,168.2 882.5,213.4 901.1,224.5 919.6,230.4 938.1,232.4 956.6,236.9 975.2,241.4 993.7,241.7 1012.2,244.1 1030.7,244.3 1049.3,245.8 1067.8,247.7 1086.3,248.1 1104.8,249.0 1123.4,250.1 1141.9,252.0 1160.4,251.2 1178.9,253.0 1197.5,253.6 1216.0,254.2"/>
      <text x="880" y="336">Final loss: 0.0572</text>
      <text x="880" y="354">Test accuracy: 98.33%</text>
    </g>
    <g>
      <text x="1444" y="70" text-anchor="middle" font-size="15">lr = 0.001</text>
      <line x1="1268" y1="276" x2="1620" y2="276" stroke="#111111"/>
      <line x1="1268" y1="78" x2="1268" y2="276" stroke="#111111"/>
      <g stroke="#e5e7eb">
        <line x1="1268" y1="237.9" x2="1620" y2="237.9"/>
        <line x1="1268" y1="199.8" x2="1620" y2="199.8"/>
        <line x1="1268" y1="161.8" x2="1620" y2="161.8"/>
        <line x1="1268" y1="123.7" x2="1620" y2="123.7"/>
        <line x1="1268" y1="85.6" x2="1620" y2="85.6"/>
      </g>
      <text x="1444" y="314" text-anchor="middle">Epoch</text>
      <polyline fill="none" stroke="#3776d6" stroke-width="2" points="1268.0,120.3 1286.5,202.3 1305.1,220.1 1323.6,227.4 1342.1,233.7 1360.6,238.8 1379.2,241.7 1397.7,245.0 1416.2,246.7 1434.7,248.7 1453.3,252.3 1471.8,251.7 1490.3,253.4 1508.8,254.6 1527.4,255.5 1545.9,257.0 1564.4,256.9 1582.9,258.9 1601.5,258.2 1620.0,259.1"/>
      <text x="1284" y="336">Final loss: 0.0445</text>
      <text x="1284" y="354">Test accuracy: 98.46%</text>
    </g>
    <g>
      <text x="1848" y="70" text-anchor="middle" font-size="15">lr = 0.0016</text>
      <line x1="1672" y1="276" x2="2024" y2="276" stroke="#111111"/>
      <line x1="1672" y1="78" x2="1672" y2="276" stroke="#111111"/>
      <g stroke="#e5e7eb">
        <line x1="1672" y1="237.9" x2="2024" y2="237.9"/>
        <line x1="1672" y1="199.8" x2="2024" y2="199.8"/>
        <line x1="1672" y1="161.8" x2="2024" y2="161.8"/>
        <line x1="1672" y1="123.7" x2="2024" y2="123.7"/>
        <line x1="1672" y1="85.6" x2="2024" y2="85.6"/>
      </g>
      <text x="1848" y="314" text-anchor="middle">Epoch</text>
      <polyline fill="none" stroke="#8d2bd1" stroke-width="2" points="1672.0,142.0 1690.5,209.6 1709.1,224.3 1727.6,231.7 1746.1,238.2 1764.6,240.4 1783.2,243.2 1801.7,246.9 1820.2,249.4 1838.7,250.0 1857.3,251.5 1875.8,254.2 1894.3,254.4 1912.8,255.7 1931.4,256.7 1949.9,257.3 1968.4,258.1 1986.9,257.8 2005.5,259.7 2024.0,260.3"/>
      <text x="1688" y="336">Final loss: 0.0413</text>
      <text x="1688" y="354">Test accuracy: 98.53%</text>
    </g>
  </g>
</svg>
